<svg width="353" height="288" viewBox="0 0 353 288" fill="none" xmlns="http://www.w3.org/2000/svg">
<path fill-rule="evenodd" clip-rule="evenodd" d="M172.769 270.992C172.021 270.995 171.281 270.625 170.474 269.55C169.705 268.475 168.936 266.939 168.936 265.301C168.936 264.686 169.09 263.815 169.398 262.894C170.986 258.49 175.137 255.367 180.107 253.37L180.876 251.578C179.543 252.551 178.211 253.012 176.674 253.012C174.985 253.012 173.919 252.166 173.389 250.973C171.947 252.153 170.127 253.114 168.117 253.114C166.092 253.114 164.267 251.89 163.469 249.803C161.68 251.849 159.06 253.114 156.741 253.114C154.395 253.114 153.03 252.104 152.496 250.517C150.747 252.108 148.452 253.268 146.441 253.268C143.008 253.268 141.523 251.527 141.523 248.864C141.523 246.099 143.879 241.389 145.878 238.215C146.954 236.525 147.774 235.193 147.415 235.193C146.954 235.193 144.444 236.627 141.625 239.801C138.807 242.771 136.501 247.789 134.4 252.398C134.041 253.217 133.376 253.524 132.556 252.704C131.991 252.14 131.618 251.48 131.484 250.625C129.385 252.144 126.799 253.133 124.254 253.166C121.006 253.2 118.758 251.76 117.656 249.542C115.93 251.716 113.033 253.114 110.624 253.114C107.396 253.114 105.603 250.861 105.603 247.84C105.603 247.021 105.756 246.099 106.115 245.024C106.986 242.259 108.985 239.443 111.034 237.037C109.651 237.651 108.369 237.856 107.242 237.907C103.04 246.663 97.5576 252.91 91.3062 253.012C86.592 253.063 83.9786 249.991 83.9786 245.946C83.9786 244.154 84.491 242.106 85.5159 240.058C88.1804 234.835 92.3828 231.968 95.3035 231.968C95.9696 231.968 96.5333 232.07 97.0458 232.377C98.4292 233.248 99.4025 234.016 100.222 235.04C100.479 235.501 100.684 236.115 100.684 236.729C100.684 238.214 99.9151 240.313 98.5316 242.106C97.0456 243.949 95.098 245.229 92.8434 245.229C91.6136 245.229 90.3839 244.922 89.2053 244.103C88.8979 245.127 88.7446 246.202 88.7446 247.123C88.7446 249.479 89.6664 251.015 91.1012 251.015C96.2253 251.015 101.555 243.642 104.27 237.395C103.348 236.832 102.835 236.064 102.835 235.143C102.835 232.429 106.269 228.691 108.011 228.639C109.087 228.639 109.497 229.305 109.497 230.432C109.497 231.507 109.087 233.043 108.524 234.733C109.958 234.374 111.291 233.658 112.982 232.582C113.802 232.07 114.518 231.712 115.133 232.531C115.799 233.401 116.67 234.784 116.67 236.064C116.67 236.679 116.415 237.344 115.8 238.01C113.596 240.57 111.085 244.052 110.163 246.663C109.958 247.329 109.804 248.25 109.804 248.864C109.804 250.196 110.214 251.066 110.932 251.066C112.657 251.066 115.325 248.332 116.92 245.044C117.066 243.474 117.571 241.809 118.464 240.109C121.129 234.682 125.279 231.968 128.251 231.968C128.969 231.968 129.532 232.07 130.045 232.377C131.48 233.197 132.504 234.016 133.221 235.04C133.529 235.501 133.734 236.269 133.734 236.934C133.734 240.006 130.301 245.383 125.792 245.383C124.562 245.383 123.332 245.024 122.154 244.256C121.846 245.28 121.692 246.355 121.692 247.277C121.692 249.53 122.614 251.117 124.152 251.117C127.455 251.117 130.426 248.391 132.534 245.627C134.056 242.216 137.296 236.46 139.985 232.429C140.652 231.456 141.42 231.507 141.933 232.429C142.394 233.197 142.598 234.016 142.598 234.835C142.598 235.193 142.599 235.552 142.548 235.859C144.751 233.811 147.21 232.121 149.055 232.121C150.541 232.121 151.925 233.914 151.925 235.859C151.925 236.986 151.002 238.624 149.362 241.492C147.723 244.103 145.981 247.482 145.981 249.376C145.981 250.451 146.34 251.117 147.006 251.117C148.728 251.117 151.351 247.865 153.193 244.476C154.646 240.865 157.56 235.646 159.304 233.197C160.072 232.173 160.687 232.07 161.353 232.839C162.327 233.863 162.737 236.064 161.404 238.624C160.431 240.825 158.073 244.666 157.202 246.714C156.741 247.891 156.485 248.967 156.485 249.786C156.485 250.605 156.69 251.066 157.253 251.066C159.303 251.066 161.968 247.636 163.556 244.154C163.638 243.97 163.731 243.827 163.829 243.723C163.903 243.529 163.983 243.331 164.069 243.13C165.094 240.621 167.041 236.576 169.091 232.889C167.502 232.684 166.58 232.122 166.17 231.507C166.104 231.408 166.048 231.315 166.003 231.225C165.743 232.184 165.06 232.889 164.069 232.889C162.429 232.889 161.045 231.354 161.045 229.766C161.045 228.333 162.122 227.001 163.3 227.001C164.682 227.001 166.015 228.71 166.112 230.162C166.336 230.015 166.69 229.952 167.143 229.971C168.322 230.022 169.705 229.971 170.833 229.868C172.421 227.104 173.497 225.414 174.676 223.724C175.444 222.598 176.059 222.649 176.622 223.622C176.981 224.237 177.186 225.107 177.186 225.721C177.186 226.643 176.982 227.82 176.367 229.254C177.955 229.459 178.826 230.278 179.185 230.893C179.697 231.814 179.339 232.429 178.109 232.275C177.187 232.173 175.854 232.275 174.727 232.429C172.779 235.757 169.859 240.826 168.066 244.717C167.451 246.1 167.143 247.431 167.143 248.557C167.143 250.093 167.656 251.168 168.527 251.168C169.905 251.168 171.6 249.634 173.108 247.422C173.214 246.754 173.392 246.051 173.651 245.332C174.829 242.106 177.34 236.934 180.517 232.582C181.183 231.712 181.952 231.66 182.516 232.48C183.028 233.196 183.489 234.119 183.489 234.938C183.489 236.218 182.874 237.702 181.696 239.597C179.953 242.362 178.878 244.461 177.904 246.868C177.187 248.711 176.725 250.759 178.058 250.759C179.39 250.759 181.696 247.738 184.206 243.488C187.64 237.702 189.023 234.579 190.252 232.736C190.97 231.814 191.636 231.712 192.2 232.275C192.968 233.043 193.173 233.811 193.173 234.886C193.173 235.91 192.917 237.037 192.251 238.317C190.765 241.184 188.101 246.151 186 251.015C189.126 249.121 191.79 246.509 193.43 244.205C194.096 243.283 194.864 243.181 195.069 243.846C195.325 244.666 195.223 245.997 194.352 247.328C192.302 250.452 188.92 252.346 184.719 254.087C181.9 260.846 178.416 269.038 173.958 270.727C173.553 270.886 173.16 270.99 172.769 270.992ZM246.893 270.845C246.042 270.838 245.205 270.433 244.466 269.448C243.748 268.372 242.98 267.041 242.98 265.454C242.98 260.846 247.95 255.572 254.202 253.421L254.868 251.732C253.74 252.5 252.408 253.012 251.025 253.012C248.921 253.012 247.456 251.923 246.801 250.166C245.182 251.934 242.916 253.268 240.725 253.268C238.163 253.268 236.677 251.937 236.267 250.042C234.781 251.476 232.475 253.063 230.425 253.063C227.402 253.063 225.763 250.861 225.763 247.84C225.763 245.638 226.685 242.771 228.53 240.211C232.629 234.323 236.831 231.916 239.444 231.916C241.289 231.916 242.416 232.838 242.878 234.17L243.851 232.582C244.466 231.558 245.337 231.507 245.952 232.224C246.823 233.248 247.284 235.501 245.952 238.163C244.62 240.979 240.315 246.56 240.315 249.991C240.315 250.759 240.52 251.22 241.033 251.22C242.761 251.22 245.119 248.164 246.8 245.042C248.535 238.526 255.705 232.07 260.094 232.07C261.785 232.07 262.913 232.992 263.374 234.22C263.579 233.862 263.886 233.35 264.194 232.787C264.809 231.61 265.731 231.661 266.397 232.429C266.858 232.992 267.217 233.965 267.217 235.04C267.217 236.422 266.653 237.805 265.372 240.365C263.733 243.59 261.683 247.328 259.992 251.22C262.991 249.383 265.441 247.364 267.387 244.818C267.559 243.314 268.057 241.728 268.908 240.109C271.572 234.682 275.723 231.968 278.695 231.968C279.412 231.968 279.976 232.07 280.488 232.377C281.923 233.197 282.948 234.016 283.665 235.04C283.972 235.501 284.178 236.269 284.178 236.934C284.178 240.006 280.744 245.383 276.235 245.383C275.005 245.383 273.776 245.024 272.597 244.256C272.29 245.28 272.136 246.355 272.136 247.277C272.136 249.53 273.059 251.117 274.596 251.117C278.49 251.117 281.923 247.329 284.024 244.154C284.119 244.015 284.218 243.897 284.318 243.801C286.51 235.559 292.054 226.597 296.886 221.523C297.859 220.55 298.782 220.242 299.755 221.164C300.882 222.137 301.446 223.571 301.446 224.902C301.446 225.619 301.394 226.182 301.138 227.053C299.55 233.146 293.964 239.187 289.455 242.208C288.43 244.82 287.764 247.124 287.764 248.916C287.764 250.145 288.072 251.015 288.738 251.015C291.095 251.015 294.067 247.584 296.014 243.898C296.68 242.618 297.808 242.618 298.166 243.949C298.371 244.717 298.32 245.894 297.654 247.277C296.886 248.813 293.094 253.012 288.789 253.012C286.07 253.012 284.243 251.655 283.814 248.977C281.527 251.396 278.076 253.122 274.698 253.166C274.624 253.166 274.549 253.166 274.476 253.166C270.901 253.129 268.577 251.275 267.705 248.573C265.675 251.116 262.436 252.911 258.659 254.292C255.943 260.897 252.203 268.68 248.053 270.625C247.669 270.769 247.279 270.848 246.893 270.845ZM172.489 267.593C172.933 267.573 173.939 266.14 175.239 263.867C176.316 261.972 177.545 259.463 178.775 256.698C176.315 258.388 174.573 260.59 173.497 262.587C172.216 264.993 171.858 267.092 172.37 267.553C172.404 267.582 172.443 267.595 172.489 267.593ZM246.41 267.4C246.963 267.408 248.151 265.911 249.59 263.406C250.615 261.613 251.742 259.361 252.715 256.801C250.563 258.337 248.975 260.18 247.899 261.972C246.413 264.481 245.747 266.888 246.259 267.348C246.302 267.382 246.353 267.399 246.41 267.4ZM73.0644 253.421C69.3238 253.421 64.3539 251.322 60.3058 246.663C59.5885 245.793 59.947 245.229 60.6644 244.973C61.0743 244.87 61.6382 244.819 62.2531 244.819C63.7391 244.819 65.1737 245.229 66.2497 246.1C68.2481 247.738 71.6297 250.298 74.6017 250.298C75.729 250.298 76.7539 250.042 77.3175 249.479C78.0861 248.711 77.8298 247.789 77.2661 247.328C73.5767 244.461 66.4547 241.696 66.4547 236.474C66.4547 229.51 74.4481 223.417 79.0598 221.472C80.7507 220.755 81.8272 220.601 83.0057 220.601C84.2355 220.601 85.2598 220.96 86.1309 221.676C87.5656 223.008 88.488 224.697 88.8468 226.08C89.3591 228.179 88.0781 230.227 87.3095 231.353C86.0797 232.992 84.5938 235.655 83.8765 236.884C83.4153 237.703 82.8514 238.112 81.8778 237.088C81.1604 236.371 80.6484 235.501 80.6484 234.323C80.6484 233.197 81.3147 231.251 83.0057 228.998C84.2867 227.104 85.6696 224.851 84.9523 224.339C83.0563 222.956 71.8348 230.483 71.5786 236.371C71.4249 239.75 78.445 242.669 80.4434 244.103C81.417 244.82 81.9806 245.741 81.9806 246.714C81.9806 247.891 81.3142 249.223 79.982 250.81C78.6497 252.346 76.1389 253.421 73.0644 253.421ZM211.005 253.166C210.083 253.166 209.366 253.012 208.597 252.653C206.445 251.629 204.908 249.581 204.908 247.943C204.908 247.328 205.215 246.048 205.676 244.871C207.623 239.495 211.466 232.07 215.053 226.592C213.26 226.336 212.286 225.209 211.877 224.39C211.569 223.673 211.825 223.212 212.85 223.161C215.976 222.956 220.485 220.499 224.431 220.14C228.018 219.833 231.143 221.728 231.143 227.616C231.143 229.408 230.221 231.507 228.94 233.145C227.659 234.886 224.841 237.344 221.51 238.983C223.047 239.904 224.277 241.543 224.277 243.54C224.277 244.973 223.713 246.663 222.279 248.148C220.178 250.452 216.027 252.295 213.157 252.961C212.44 253.114 211.62 253.166 211.005 253.166ZM251.64 250.861C253.279 250.913 255.688 247.789 258.198 243.488C260.197 240.006 261.119 237.497 261.119 236.166C261.119 235.552 260.965 235.245 260.606 235.245C258.864 235.245 250.973 243.283 250.973 249.223C250.973 250.196 251.178 250.861 251.64 250.861ZM231.092 250.81C232.783 250.81 235.14 247.687 237.651 243.386C239.649 239.904 240.572 237.395 240.572 236.064C240.572 235.45 240.469 235.091 239.957 235.091C238.932 235.091 235.396 238.317 232.783 242.515C231.246 244.922 230.375 247.636 230.375 249.274C230.375 250.196 230.58 250.81 231.092 250.81ZM209.916 249.761C210.03 249.763 210.153 249.754 210.288 249.735C213.26 249.377 217.513 247.329 219.614 244.717C220.28 243.898 220.69 243.027 220.69 242.31C220.69 241.389 219.768 240.569 217.462 240.365C215.515 240.774 213.568 240.877 212.492 240.57C211.211 243.078 209.981 245.69 209.264 247.943C208.86 249.197 209.123 249.746 209.916 249.761ZM123.998 242.669C125.228 242.669 126.868 241.133 127.893 239.751C129.379 237.754 130.455 235.347 129.891 234.886C129.123 234.272 125.33 237.395 122.871 242.31C123.281 242.566 123.639 242.669 123.998 242.669ZM274.442 242.669C275.671 242.669 277.311 241.133 278.336 239.751C279.822 237.754 280.898 235.347 280.335 234.886C279.566 234.272 275.774 237.395 273.314 242.31C273.724 242.566 274.083 242.669 274.442 242.669ZM91.0504 242.515C92.3827 242.515 93.7659 241.03 94.7907 239.648C96.2254 237.805 97.4039 235.296 96.8915 234.886C95.9692 234.17 92.4849 237.139 90.384 241.287C90.1278 241.748 90.0257 241.952 89.9232 242.208C90.3332 242.413 90.6917 242.515 91.0504 242.515ZM291.351 238.061C293.554 235.91 295.297 233.555 296.476 231.558C298.218 228.64 298.884 226.387 298.576 226.182C298.371 226.079 297.039 228.077 295.297 231.098C293.965 233.35 291.71 237.19 291.351 238.061ZM214.336 236.986C222.74 234.733 228.069 229.254 228.017 225.823C228.017 224.748 227.146 224.083 226.275 224.083C224.892 224.083 222.791 224.851 219.46 225.977C219.511 227.103 219.152 228.589 217.923 230.893C217.359 231.968 216.642 233.197 214.336 236.986Z" fill="#7A4D1F"/>
<path fill-rule="evenodd" clip-rule="evenodd" d="M99.1994 186.654C97.9842 181.052 97.3435 175.235 97.3435 169.269C97.3435 124.152 133.946 87.5769 179.098 87.5769C224.25 87.5769 260.853 124.152 260.853 169.269C260.853 175.235 260.212 181.052 258.997 186.654C242.802 181.699 224.345 177.274 205.151 175.013C205.558 173.163 205.772 171.241 205.772 169.269C205.772 154.549 193.83 142.615 179.098 142.615C164.366 142.615 152.424 154.549 152.424 169.269C152.424 171.241 152.638 173.163 153.045 175.013C133.851 177.274 115.394 181.699 99.1994 186.654Z" fill="url(#paint0_linear_1_29)"/>
<path fill-rule="evenodd" clip-rule="evenodd" d="M178.925 11.0769L172.775 78.0577H185.075L178.925 11.0769Z" fill="#F7D278" fill-opacity="0.433194"/>
<path fill-rule="evenodd" clip-rule="evenodd" d="M106.374 27.8767L134.563 88.9565L145.216 82.811L106.374 27.8767Z" fill="#F7D278" fill-opacity="0.433194"/>
<path fill-rule="evenodd" clip-rule="evenodd" d="M55.7244 64.8912L103.121 112.653L111.027 103.238L55.7244 64.8912Z" fill="#F7D278" fill-opacity="0.433194"/>
<path fill-rule="evenodd" clip-rule="evenodd" d="M26.5386 115.736L87.4245 144.42L91.6315 132.87L26.5386 115.736Z" fill="#F7D278" fill-opacity="0.433194"/>
<path fill-rule="evenodd" clip-rule="evenodd" d="M20.4387 173.25L87.4706 179.395V167.105L20.4387 173.25Z" fill="#F7D278" fill-opacity="0.433194"/>
<path fill-rule="evenodd" clip-rule="evenodd" d="M250.137 26.6652L211.295 81.5995L221.947 87.745L250.137 26.6652Z" fill="#F7D278" fill-opacity="0.433194"/>
<path fill-rule="evenodd" clip-rule="evenodd" d="M299.478 63.5876L244.175 101.934L252.082 111.35L299.478 63.5876Z" fill="#F7D278" fill-opacity="0.433194"/>
<path fill-rule="evenodd" clip-rule="evenodd" d="M331.539 115.065L266.446 132.199L270.653 143.748L331.539 115.065Z" fill="#F7D278" fill-opacity="0.433194"/>
<path fill-rule="evenodd" clip-rule="evenodd" d="M338.45 171.865L271.419 165.72V178.011L338.45 171.865Z" fill="#F7D278" fill-opacity="0.433194"/>
<path fill-rule="evenodd" clip-rule="evenodd" d="M226.989 152.308C226.989 152.308 224.825 151.287 224.825 148.945C224.825 146.948 225.486 146.423 226.688 146.423C227.89 146.423 228.497 146.958 228.491 148.825C228.483 151.203 226.989 152.308 226.989 152.308Z" fill="white" fill-opacity="0.550236"/>
<path fill-rule="evenodd" clip-rule="evenodd" d="M200.257 133.924C200.257 133.924 199.59 131.628 201.347 130.077C202.845 128.756 203.677 128.903 204.472 129.803C205.268 130.704 205.269 131.512 203.864 132.744C202.075 134.312 200.257 133.924 200.257 133.924Z" fill="white" fill-opacity="0.550236"/>
<path fill-rule="evenodd" clip-rule="evenodd" d="M199.454 99.2891C199.454 99.2891 201.495 98.0431 203.454 99.3291C205.124 100.426 205.2 101.266 204.54 102.27C203.88 103.273 203.1 103.487 201.541 102.456C199.557 101.144 199.454 99.2891 199.454 99.2891Z" fill="white" fill-opacity="0.550236"/>
<path fill-rule="evenodd" clip-rule="evenodd" d="M174.221 111.357C174.221 111.357 176.18 112.729 175.784 115.037C175.447 117.005 174.706 117.411 173.522 117.208C172.337 117.005 171.829 116.375 172.151 114.536C172.561 112.193 174.221 111.357 174.221 111.357Z" fill="white" fill-opacity="0.550236"/>
<path fill-rule="evenodd" clip-rule="evenodd" d="M153.089 133.165C153.089 133.165 155.049 134.536 154.653 136.844C154.315 138.813 153.575 139.218 152.39 139.015C151.206 138.812 150.698 138.183 151.02 136.344C151.43 134.001 153.089 133.165 153.089 133.165Z" fill="white" fill-opacity="0.550236"/>
<path fill-rule="evenodd" clip-rule="evenodd" d="M144.878 111.738C144.878 111.738 144.942 114.127 142.851 115.183C141.067 116.084 140.3 115.731 139.758 114.66C139.216 113.588 139.419 112.805 141.09 111.968C143.218 110.903 144.878 111.738 144.878 111.738Z" fill="white" fill-opacity="0.550236"/>
<path fill-rule="evenodd" clip-rule="evenodd" d="M126.528 144.519C126.528 144.519 124.173 144.944 122.812 143.037C121.652 141.411 121.885 140.6 122.863 139.903C123.842 139.206 124.646 139.288 125.727 140.812C127.102 142.753 126.528 144.519 126.528 144.519Z" fill="white" fill-opacity="0.550236"/>
<path fill-rule="evenodd" clip-rule="evenodd" d="M133.596 168.152C133.596 168.152 134.801 166.087 137.136 166.289C139.127 166.462 139.593 167.165 139.489 168.362C139.385 169.558 138.8 170.116 136.939 169.949C134.568 169.735 133.596 168.152 133.596 168.152Z" fill="white" fill-opacity="0.550236"/>
<path fill-rule="evenodd" clip-rule="evenodd" d="M106.105 159.862C106.105 159.862 108.395 160.556 108.737 162.873C109.029 164.849 108.451 165.464 107.262 165.64C106.073 165.815 105.395 165.375 105.128 163.527C104.788 161.173 106.105 159.862 106.105 159.862Z" fill="white" fill-opacity="0.550236"/>
<path fill-rule="evenodd" clip-rule="evenodd" d="M233.411 126.764C233.411 126.764 233.346 124.374 235.437 123.317C237.22 122.415 237.987 122.767 238.53 123.839C239.072 124.91 238.869 125.693 237.199 126.531C235.072 127.598 233.411 126.764 233.411 126.764Z" fill="white" fill-opacity="0.550236"/>
<path fill-rule="evenodd" clip-rule="evenodd" d="M247.536 167.076C247.536 167.076 249.877 166.58 251.295 168.444C252.505 170.034 252.297 170.851 251.34 171.578C250.383 172.305 249.576 172.247 248.45 170.756C247.016 168.859 247.536 167.076 247.536 167.076Z" fill="white" fill-opacity="0.550236"/>
<path fill-rule="evenodd" clip-rule="evenodd" d="M219.479 164.425C219.479 164.425 220.609 166.532 219.213 168.414C218.024 170.018 217.18 170.047 216.214 169.332C215.248 168.617 215.079 167.826 216.197 166.33C217.62 164.424 219.479 164.425 219.479 164.425Z" fill="white" fill-opacity="0.550236"/>
<defs>
<linearGradient id="paint0_linear_1_29" x1="179.098" y1="258.923" x2="179.098" y2="85.5" gradientUnits="userSpaceOnUse">
<stop stop-color="#B05703"/>
<stop offset="1" stop-color="#FBD0A0"/>
</linearGradient>
</defs>
</svg>
